name analog
datacolumns 19
datarows 18
range 0.427 0.4355
endheader
time	ground_force_vx	ground_force_vy	ground_force_vz	ground_force_px	ground_force_py	ground_force_pz	l_ground_force_vx	l_ground_force_vy	l_ground_force_vz	l_ground_force_px	l_ground_force_py	l_ground_force_pz	ground_torque_x	ground_torque_y	ground_torque_z	l_ground_torque_x	l_ground_torque_y	l_ground_torque_z
0.427	-0.0	-0.0	-0.0	2.127705812454224	9.193765640258787	-371.0864562988281	9.998062133789062	-13.197556495666504	-404.9704895019531	-0.0	-0.0	-0.0	-0.0	-0.0	-0.0	110965.65625	-50569.23828125	-3221.374755859375
0.4275	-0.0	-0.0	-0.0	1.9492179155349727	9.294025421142578	-372.5079040527344	9.656280517578123	-13.034016609191896	-403.6192626953125	-0.0	-0.0	-0.0	-0.0	-0.0	-0.0	110776.0234375	-50040.19140625	-3437.4716796875
0.428	-0.0	-0.0	-0.0	1.5923128128051758	9.409989356994627	-372.4549255371094	9.429858207702637	-12.88176727294922	-402.9731750488281	-0.0	-0.0	-0.0	-0.0	-0.0	-0.0	110521.359375	-49645.7109375	-3437.593994140625
0.4285	-0.0	-0.0	-0.0	1.3138834238052368	9.90418529510498	-372.7546081542969	9.554095268249512	-12.54167938232422	-402.1792907714844	-0.0	-0.0	-0.0	-0.0	-0.0	-0.0	110558.0859375	-49330.74609375	-3450.021728515625
0.429	-0.0	-0.0	-0.0	0.9918414950370787	10.630653381347656	-376.0826721191406	9.174860000610352	-12.514973640441896	-404.3703918457031	-0.0	-0.0	-0.0	-0.0	-0.0	-0.0	110548.1171875	-49021.359375	-3577.03271484375
0.4295	-0.0	-0.0	-0.0	0.5762903690338135	10.897978782653809	-374.68267822265625	9.099583625793455	-12.504217147827148	-403.1220397949219	-0.0	-0.0	-0.0	-0.0	-0.0	-0.0	110706.609375	-48807.3359375	-3692.127197265625
0.43	-0.0	-0.0	-0.0	0.1406924873590469	11.13108730316162	-376.2315673828125	8.376402854919434	-12.324615478515623	-403.2701416015625	-0.0	-0.0	-0.0	-0.0	-0.0	-0.0	110830.921875	-48383.85546875	-3883.162353515625
0.4305	-0.0	-0.0	-0.0	-0.5152082443237305	11.840524673461914	-374.6691589355469	7.960030555725098	-12.453357696533203	-402.7602844238281	-0.0	-0.0	-0.0	-0.0	-0.0	-0.0	111043.46875	-48156.62109375	-3954.279052734375
0.431	-0.0	-0.0	-0.0	-1.070526123046875	12.159364700317385	-377.2511596679688	7.400519371032715	-12.490716934204102	-403.9282836914063	-0.0	-0.0	-0.0	-0.0	-0.0	-0.0	110830.5	-47871.828125	-4163.42236328125
0.4315	-0.0	-0.0	-0.0	-1.1694388389587402	12.14963150024414	-379.0342102050781	7.42795991897583	-12.40235710144043	-404.1700439453125	-0.0	-0.0	-0.0	-0.0	-0.0	-0.0	110985.71875	-47246.0078125	-4434.9384765625
0.432	-0.0	-0.0	-0.0	-1.8403658866882324	12.154759407043455	-378.9620971679688	6.751832962036133	-12.351280212402344	-404.9071044921875	-0.0	-0.0	-0.0	-0.0	-0.0	-0.0	111407.359375	-47276.76953125	-4533.65185546875
0.4325	-0.0	-0.0	-0.0	-1.9391627311706543	12.004446983337402	-379.07366943359375	6.326203346252441	-12.365036010742188	-405.3104248046875	-0.0	-0.0	-0.0	-0.0	-0.0	-0.0	111408.3671875	-46706.7265625	-4587.29248046875
0.433	-0.0	-0.0	-0.0	-1.882603883743286	12.159221649169922	-380.2823486328125	5.9157304763793945	-12.583333969116213	-404.7765197753906	-0.0	-0.0	-0.0	-0.0	-0.0	-0.0	111155.9296875	-46423.23046875	-4809.22705078125
0.4335	-0.0	-0.0	-0.0	-1.9768778085708616	12.12698745727539	-379.66845703125	5.602802753448486	-12.667181015014648	-404.7771301269531	-0.0	-0.0	-0.0	-0.0	-0.0	-0.0	111087.578125	-45724.04296875	-4965.61474609375
0.434	-0.0	-0.0	-0.0	-2.3194732666015625	12.469406127929688	-380.2049560546875	4.921319007873535	-13.173944473266602	-405.3843383789063	-0.0	-0.0	-0.0	-0.0	-0.0	-0.0	111095.140625	-45507.55078125	-5056.85302734375
0.4345	-0.0	-0.0	-0.0	-2.6993558406829834	13.168279647827148	-378.4264526367188	4.575681686401367	-13.476101875305176	-405.6585083007813	-0.0	-0.0	-0.0	-0.0	-0.0	-0.0	110875.6953125	-45052.0078125	-5191.3759765625
0.435	-0.0	-0.0	-0.0	-3.1079137325286865	13.03594207763672	-380.4655456542969	3.903274536132813	-13.49905014038086	-404.576171875	-0.0	-0.0	-0.0	-0.0	-0.0	-0.0	111161.3828125	-44749.7890625	-5283.7880859375
0.4355	-0.0	-0.0	-0.0	-3.331913709640503	13.176791191101074	-379.9641418457031	3.5913209915161133	-13.51321792602539	-404.3175659179688	-0.0	-0.0	-0.0	-0.0	-0.0	-0.0	110838.3515625	-44316.8125	-5463.84228515625
